<svg width="175" height="39" viewBox="0 0 175 39" fill="none" xmlns="http://www.w3.org/2000/svg">
<path d="M46.0227 31V7.72727H55.2045C56.9697 7.72727 58.4735 8.06439 59.7159 8.73864C60.9583 9.4053 61.9053 10.3333 62.5568 11.5227C63.2159 12.7045 63.5455 14.0682 63.5455 15.6136C63.5455 17.1591 63.2121 18.5227 62.5455 19.7045C61.8788 20.8864 60.9129 21.8068 59.6477 22.4659C58.3902 23.125 56.8674 23.4545 55.0795 23.4545H49.2273V19.5114H54.2841C55.2311 19.5114 56.0114 19.3485 56.625 19.0227C57.2462 18.6894 57.7083 18.2311 58.0114 17.6477C58.322 17.0568 58.4773 16.3788 58.4773 15.6136C58.4773 14.8409 58.322 14.1667 58.0114 13.5909C57.7083 13.0076 57.2462 12.5568 56.625 12.2386C56.0038 11.9129 55.2159 11.75 54.2614 11.75H50.9432V31H46.0227ZM66.7415 31V7.72727H71.6619V17.3295H81.6506V7.72727H86.5597V31H81.6506V21.3864H71.6619V31H66.7415Z" fill="#FF1F3D"/>
<path d="M97.1364 11.7841V7.72727H116.25V11.7841H109.125V31H104.261V11.7841H97.1364ZM128.125 23.5682V13.5455H132.966V31H128.318V27.8295H128.136C127.742 28.8523 127.087 29.6742 126.17 30.2955C125.261 30.9167 124.152 31.2273 122.841 31.2273C121.674 31.2273 120.648 30.9621 119.761 30.4318C118.875 29.9015 118.182 29.1477 117.682 28.1705C117.189 27.1932 116.939 26.0227 116.932 24.6591V13.5455H121.773V23.7955C121.78 24.8258 122.057 25.6402 122.602 26.2386C123.148 26.8371 123.879 27.1364 124.795 27.1364C125.379 27.1364 125.924 27.0038 126.432 26.7386C126.939 26.4659 127.348 26.0644 127.659 25.5341C127.977 25.0038 128.133 24.3485 128.125 23.5682ZM136.929 31V7.72727H141.77V16.4773H141.918C142.13 16.0076 142.437 15.5303 142.838 15.0455C143.247 14.553 143.777 14.1439 144.429 13.8182C145.088 13.4848 145.906 13.3182 146.884 13.3182C148.156 13.3182 149.33 13.6515 150.406 14.3182C151.482 14.9773 152.342 15.9735 152.986 17.3068C153.63 18.6326 153.952 20.2955 153.952 22.2955C153.952 24.2424 153.637 25.8864 153.009 27.2273C152.387 28.5606 151.539 29.572 150.463 30.2614C149.395 30.9432 148.198 31.2841 146.872 31.2841C145.933 31.2841 145.134 31.1288 144.474 30.8182C143.823 30.5076 143.289 30.1174 142.872 29.6477C142.455 29.1705 142.137 28.6894 141.918 28.2045H141.702V31H136.929ZM141.668 22.2727C141.668 23.3106 141.812 24.2159 142.099 24.9886C142.387 25.7614 142.804 26.3636 143.349 26.7955C143.895 27.2197 144.558 27.4318 145.338 27.4318C146.126 27.4318 146.793 27.2159 147.338 26.7841C147.884 26.3447 148.296 25.7386 148.577 24.9659C148.865 24.1856 149.009 23.2879 149.009 22.2727C149.009 21.2652 148.868 20.3788 148.588 19.6136C148.308 18.8485 147.895 18.25 147.349 17.8182C146.804 17.3864 146.134 17.1705 145.338 17.1705C144.55 17.1705 143.884 17.3788 143.338 17.7955C142.8 18.2121 142.387 18.803 142.099 19.5682C141.812 20.3333 141.668 21.2348 141.668 22.2727ZM165.136 31.3409C163.341 31.3409 161.795 30.9773 160.5 30.25C159.212 29.5152 158.22 28.4773 157.523 27.1364C156.826 25.7879 156.477 24.1932 156.477 22.3523C156.477 20.5568 156.826 18.9811 157.523 17.625C158.22 16.2689 159.201 15.2121 160.466 14.4545C161.739 13.697 163.231 13.3182 164.943 13.3182C166.095 13.3182 167.167 13.5038 168.159 13.875C169.159 14.2386 170.03 14.7879 170.773 15.5227C171.523 16.2576 172.106 17.1818 172.523 18.2955C172.939 19.4015 173.148 20.697 173.148 22.1818V23.5114H158.409V20.5114H168.591C168.591 19.8144 168.439 19.197 168.136 18.6591C167.833 18.1212 167.413 17.7008 166.875 17.3977C166.345 17.0871 165.727 16.9318 165.023 16.9318C164.288 16.9318 163.636 17.1023 163.068 17.4432C162.508 17.7765 162.068 18.2273 161.75 18.7955C161.432 19.3561 161.269 19.9811 161.261 20.6705V23.5227C161.261 24.3864 161.42 25.1326 161.739 25.7614C162.064 26.3902 162.523 26.875 163.114 27.2159C163.705 27.5568 164.405 27.7273 165.216 27.7273C165.754 27.7273 166.246 27.6515 166.693 27.5C167.14 27.3485 167.523 27.1212 167.841 26.8182C168.159 26.5152 168.402 26.1439 168.568 25.7045L173.045 26C172.818 27.0758 172.352 28.0152 171.648 28.8182C170.951 29.6136 170.049 30.2348 168.943 30.6818C167.845 31.1212 166.576 31.3409 165.136 31.3409Z" fill="#252525"/>
<g clip-path="url(#clip0_13_1179)">
<path d="M16 35C24.8366 35 32 27.8366 32 19C32 10.1634 24.8366 3 16 3C7.16344 3 0 10.1634 0 19C0 27.8366 7.16344 35 16 35Z" fill="#FF6B6B"/>
<path d="M32 19H0C0 27.8366 7.16344 35 16 35C24.8366 35 32 27.8366 32 19Z" fill="#FF1F3D"/>
<path d="M11.6249 28.0625C11.4791 28.0625 11.3329 28.0286 11.1982 27.9597C10.8847 27.7994 10.6875 27.4771 10.6875 27.125V10.875C10.6875 10.5229 10.8848 10.2006 11.1982 10.0403C11.5116 9.88006 11.8884 9.90888 12.1739 10.115L23.4239 18.24C23.6679 18.4163 23.8125 18.699 23.8125 19C23.8125 19.301 23.6679 19.5838 23.4239 19.76L12.1739 27.885C12.0111 28.0026 11.8185 28.0625 11.6249 28.0625Z" fill="#F9F9F9"/>
<path d="M10.6875 19V27.125C10.6875 27.4771 10.8848 27.7994 11.1982 27.9597C11.3328 28.0286 11.4791 28.0625 11.6249 28.0625C11.8184 28.0625 12.0111 28.0026 12.1739 27.885L23.4239 19.76C23.6679 19.5838 23.8125 19.301 23.8125 19H10.6875Z" fill="#E2DFF4"/>
</g>
<defs>
<clipPath id="clip0_13_1179">
<rect width="32" height="32" fill="white" transform="translate(0 3)"/>
</clipPath>
</defs>
</svg>
